<svg xmlns="http://www.w3.org/2000/svg" width="18" height="17" fill="none"><path fill="#E5E5E5" d="M0 0h18v17H0z"/><g clip-path="url(#a)"><path fill="#F2F2F2" d="M-154-1464h1280V780H-154z"/><g filter="url(#b)"><path fill="#fff" d="M-114-1464h1200V774.86H-114z"/><path fill="#fff" d="M-114-988h1200V247H-114z"/><rect width="341" height="439" x="-44.5" y="-391.5" stroke="#E6E6E6" rx="4.5"/><g clip-path="url(#c)"><path fill="#83B3D3" d="m9 0 2.1 6.5H18l-5.6 4 2.2 6.5L9 13l-5.6 4 2.2-6.5-5.6-4h6.9L9 0Z"/></g></g></g><defs><clipPath id="a"><path fill="#fff" d="M-154-1464h1280V780H-154z"/></clipPath><clipPath id="c"><path fill="#fff" d="M0 0h18v17H0z"/></clipPath><filter id="b" width="1230" height="2275.86" x="-129" y="-1479" color-interpolation-filters="sRGB" filterUnits="userSpaceOnUse"><feFlood flood-opacity="0" result="BackgroundImageFix"/><feColorMatrix in="SourceAlpha" result="hardAlpha" values="0 0 0 0 0 0 0 0 0 0 0 0 0 0 0 0 0 0 127 0"/><feOffset/><feGaussianBlur stdDeviation="7.5"/><feColorMatrix values="0 0 0 0 0 0 0 0 0 0 0 0 0 0 0 0 0 0 0.2 0"/><feBlend in2="BackgroundImageFix" result="effect1_dropShadow_0_1"/><feBlend in="SourceGraphic" in2="effect1_dropShadow_0_1" result="shape"/></filter></defs></svg>